<svg xmlns="http://www.w3.org/2000/svg" width="200" height="200" viewBox="0 0 200 200">
<g>
<path d="M 78.00 170.48 L 78.00 179.00 L 74.75 178.92 C72.96,178.88 68.80,178.05 65.50,177.07 C47.32,171.69 31.12,158.12 22.79,141.31 L 18.54 132.74 L 18.16 102.90 C17.71,68.90 18.38,63.89 24.84,52.95 C30.02,44.16 44.64,30.60 54.61,25.33 C68.38,18.06 70.25,17.77 108.25,17.27 L 142.00 16.82 L 142.00 24.85 C142.00,29.28 141.54,33.17 140.97,33.52 C140.40,33.87 127.24,34.51 111.72,34.93 L 83.50 35.71 L 72.50 39.35 C62.91,42.51 60.66,43.71 55.00,48.65 C47.17,55.47 43.89,59.75 40.94,67.02 C38.95,71.91 38.66,74.73 38.25,93.23 C37.51,126.87 39.31,134.42 50.73,145.75 C57.05,152.01 63.61,156.05 75.25,160.83 C77.95,161.94 78.00,162.12 78.00,170.48 ZM 160.53 180.91 C157.29,181.51 144.17,182.00 131.38,182.00 C129.29,182.00 127.38,182.01 125.63,182.01 C113.76,182.05 109.33,182.06 107.90,180.00 C107.05,178.78 107.26,176.82 107.59,173.70 C107.67,172.92 107.76,172.07 107.84,171.15 L 108.50 163.80 L 133.66 163.94 C135.89,163.96 137.95,163.98 139.85,163.99 C152.82,164.12 158.25,164.17 160.50,161.52 C162.11,159.62 162.08,156.31 162.02,150.63 C162.01,149.47 162.00,148.22 162.00,146.86 C162.00,139.88 161.73,133.45 161.39,132.58 C160.87,131.21 158.08,131.00 140.52,131.00 C124.25,131.00 120.01,130.72 119.07,129.58 C118.38,128.75 118.02,125.78 118.20,122.33 L 118.50 116.50 L 139.46 116.00 L 160.41 115.50 L 161.11 113.00 C162.18,109.13 162.12,88.44 161.02,85.57 L 160.05 83.00 L 137.77 82.99 C125.52,82.99 112.46,82.70 108.75,82.35 L 102.00 81.71 L 102.00 65.00 L 115.75 64.75 C136.72,64.37 157.91,64.97 163.71,66.10 C170.37,67.41 178.47,74.27 179.92,79.83 C181.46,85.74 181.64,162.87 180.12,166.50 C176.68,174.69 170.83,179.01 160.53,180.91 Z" fill="rgb(8,5,3)"/>
<path d="M 160.53 180.91 C170.83,179.01 176.68,174.69 180.12,166.50 C181.64,162.87 181.46,85.74 179.92,79.83 C178.47,74.27 170.37,67.41 163.71,66.10 C158.36,65.05 139.87,64.46 120.56,64.68 C127.91,64.57 137.27,64.45 143.50,64.40 C151.20,64.33 158.39,64.19 159.47,64.09 C163.72,63.70 170.32,66.64 175.46,71.22 C180.39,75.61 180.87,76.45 181.89,82.32 C182.57,86.17 183.00,103.02 183.00,125.21 C183.00,164.73 182.80,166.46 177.48,173.44 C176.05,175.32 173.86,177.52 172.61,178.34 C167.18,181.89 161.16,182.51 134.31,182.23 C124.85,182.14 118.62,182.18 114.56,181.91 C117.22,182.04 120.81,182.03 125.63,182.01 L 125.63 182.01 C127.38,182.01 129.29,182.00 131.38,182.00 C144.17,182.00 157.29,181.51 160.53,180.91 ZM 101.00 79.00 C101.57,79.00 102.00,76.00 102.00,72.00 L 102.00 81.71 L 108.75 82.35 C112.46,82.70 125.52,82.99 137.77,82.99 L 160.05 83.00 L 161.02 85.57 C161.68,87.30 161.97,95.53 161.85,102.63 C161.77,100.01 161.48,98.00 161.00,98.00 C160.45,98.00 160.00,95.84 160.00,93.19 C160.00,93.10 160.00,93.01 160.00,92.93 C160.00,90.54 160.00,88.91 159.26,87.75 C157.64,85.23 152.47,84.99 136.00,84.10 C124.18,83.46 111.80,83.04 108.49,83.17 C105.18,83.31 101.92,83.07 101.24,82.65 C99.76,81.73 99.58,79.00 101.00,79.00 ZM 136.04 163.96 C147.44,163.97 153.00,163.67 153.00,163.05 C153.00,162.47 154.04,162.00 155.30,162.00 C158.06,162.00 160.00,160.26 160.00,157.80 C160.00,156.81 160.45,156.00 161.00,156.00 C161.55,156.00 161.90,150.78 162.00,145.23 C162.00,145.77 162.00,146.31 162.00,146.86 C162.00,148.22 162.01,149.47 162.02,150.63 C162.08,156.31 162.11,159.62 160.50,161.52 C158.25,164.17 152.82,164.12 139.85,163.99 C138.64,163.98 137.38,163.97 136.04,163.96 ZM 77.49 178.99 C77.30,179.90 77.05,180.47 76.75,180.69 C74.96,182.04 64.64,178.07 55.06,172.99 C58.43,174.64 61.93,176.01 65.50,177.07 C68.80,178.05 72.96,178.88 74.75,178.92 ZM 37.19 160.58 C31.15,154.91 26.35,148.49 22.79,141.31 C26.32,148.44 31.27,154.99 37.19,160.58 ZM 107.36 178.42 C107.19,177.28 107.36,175.77 107.57,173.79 C107.66,172.98 107.76,172.10 107.84,171.14 L 108.50 163.77 L 123.10 163.88 L 108.50 163.80 L 107.84 171.15 C107.76,172.07 107.67,172.92 107.59,173.70 C107.38,175.72 107.21,177.26 107.36,178.42 Z" fill="rgb(226,184,61)"/>
<path d="M 0.00 100.00 L 0.00 0.00 L 100.00 0.00 L 200.00 0.00 L 200.00 100.00 L 200.00 200.00 L 100.00 200.00 L 0.00 200.00 L 0.00 100.00 ZM 172.61 178.34 C173.86,177.52 176.05,175.32 177.48,173.44 C182.80,166.46 183.00,164.73 183.00,125.21 C183.00,103.02 182.57,86.17 181.89,82.32 C180.87,76.45 180.39,75.61 175.46,71.22 C170.32,66.64 163.72,63.70 159.47,64.09 C158.39,64.19 151.20,64.33 143.50,64.40 C135.80,64.46 123.31,64.63 115.75,64.76 L 102.00 65.00 L 102.00 72.00 C102.00,76.00 101.57,79.00 101.00,79.00 C99.58,79.00 99.76,81.73 101.24,82.65 C101.92,83.07 105.18,83.31 108.49,83.17 C111.80,83.04 124.18,83.46 136.00,84.10 C160.28,85.42 160.00,85.31 160.00,93.19 C160.00,95.84 160.45,98.00 161.00,98.00 C162.12,98.00 162.20,109.07 161.11,113.00 L 160.41 115.50 L 139.46 116.00 L 118.50 116.50 L 118.20 122.33 C118.02,125.78 118.38,128.75 119.07,129.58 C120.01,130.72 124.25,131.00 140.52,131.00 C158.08,131.00 160.87,131.21 161.39,132.58 C162.43,135.29 162.09,156.00 161.00,156.00 C160.45,156.00 160.00,156.81 160.00,157.80 C160.00,160.26 158.06,162.00 155.30,162.00 C154.04,162.00 153.00,162.47 153.00,163.05 C153.00,163.76 145.73,164.05 130.75,163.94 L 108.50 163.77 L 107.84 171.14 C106.79,183.00 104.23,181.93 134.31,182.23 C161.16,182.51 167.18,181.89 172.61,178.34 ZM 78.00 170.86 C78.00,162.09 77.96,161.94 75.25,160.83 C63.61,156.05 57.05,152.01 50.73,145.75 C39.31,134.42 37.51,126.87 38.25,93.23 C38.66,74.73 38.95,71.91 40.94,67.02 C43.89,59.75 47.17,55.47 55.00,48.65 C60.66,43.71 62.91,42.51 72.50,39.35 L 83.50 35.71 L 111.72 34.93 C127.24,34.51 140.40,33.87 140.97,33.52 C141.54,33.17 142.00,29.28 142.00,24.85 L 142.00 16.82 L 108.25 17.27 C70.25,17.77 68.38,18.06 54.61,25.33 C44.64,30.60 30.02,44.16 24.84,52.95 C18.38,63.89 17.71,68.90 18.16,102.90 L 18.54 132.74 L 22.79 141.31 C27.40,150.62 34.11,158.66 42.91,165.43 C52.89,173.10 74.11,182.68 76.75,180.69 C77.59,180.07 78.00,176.81 78.00,170.86 Z" fill="rgb(253,195,25)"/>
</g>
</svg>