<svg xmlns="http://www.w3.org/2000/svg" width="133" height="133" viewBox="0 0 133 133">
<g>
<path d="M 51.80 112.80 C51.46,119.27 50.29,119.99 44.00,117.64 C31.13,112.82 20.69,103.98 15.49,93.50 L 12.51 87.50 L 12.50 65.98 L 12.50 44.46 L 15.72 37.92 C21.58,26.02 33.00,16.85 46.50,13.21 C51.94,11.74 87.21,10.33 91.51,11.41 C93.94,12.02 94.08,12.39 93.80,17.28 L 93.50 22.50 L 74.50 23.10 C50.17,23.86 41.88,26.22 33.86,34.67 C26.65,42.25 26.00,44.73 26.00,64.72 C26.00,74.50 26.44,84.05 26.98,85.92 C29.25,93.85 39.71,103.77 48.22,106.06 L 52.10 107.10 ZM 108.37 120.05 C103.90,121.09 73.66,121.33 72.67,120.33 C72.30,119.97 72.00,117.27 72.00,114.33 L 72.00 109.00 L 87.28 109.00 C87.56,109.00 87.84,109.00 88.12,109.00 C98.97,109.00 103.59,109.00 105.55,106.72 C107.00,105.03 107.00,102.09 107.00,96.98 C107.00,96.80 107.00,96.62 107.00,96.44 L 107.00 87.00 L 93.47 87.00 C93.22,87.00 92.97,87.00 92.73,87.00 C83.91,87.00 80.72,87.00 79.51,85.46 C78.79,84.54 78.76,83.08 78.65,80.77 L 78.50 77.50 L 106.50 76.50 L 106.50 66.83 C106.50,61.51 106.21,56.87 105.86,56.52 C105.50,56.17 96.95,55.62 86.86,55.29 C76.76,54.97 68.22,54.28 67.88,53.75 C67.54,53.23 67.35,50.71 67.46,48.15 L 67.65 43.50 L 86.58 43.21 C98.62,43.02 107.01,43.34 109.66,44.07 C114.61,45.43 118.66,49.34 120.02,54.07 C121.30,58.52 121.28,104.44 120.00,109.04 C118.70,113.72 113.20,118.93 108.37,120.05 Z" fill="rgb(10,7,3)"/>
<path d="M 0.00 66.50 L 0.00 0.00 L 66.50 0.00 L 133.00 0.00 L 133.00 66.50 L 133.00 133.00 L 66.50 133.00 L 0.00 133.00 L 0.00 66.50 ZM 108.37 120.05 C113.20,118.93 118.70,113.72 120.00,109.04 C121.28,104.44 121.30,58.52 120.02,54.07 C118.66,49.34 114.61,45.43 109.66,44.07 C107.01,43.34 98.62,43.02 86.58,43.21 L 67.65 43.50 L 67.46 48.15 C67.35,50.71 67.54,53.23 67.88,53.75 C68.22,54.28 76.76,54.97 86.86,55.29 C96.95,55.62 105.50,56.17 105.86,56.52 C106.21,56.87 106.50,61.51 106.50,66.83 L 106.50 76.50 L 92.50 77.00 L 78.50 77.50 L 78.65 80.77 C78.94,87.11 78.68,87.00 93.47,87.00 L 107.00 87.00 L 107.00 96.44 C107.00,109.18 107.29,109.00 87.28,109.00 L 72.00 109.00 L 72.00 114.33 C72.00,117.27 72.30,119.97 72.67,120.33 C73.66,121.33 103.90,121.09 108.37,120.05 ZM 51.80 112.80 L 52.10 107.10 L 48.22 106.06 C39.71,103.77 29.25,93.85 26.98,85.92 C26.44,84.05 26.00,74.50 26.00,64.72 C26.00,44.73 26.65,42.25 33.86,34.67 C41.88,26.22 50.17,23.86 74.50,23.10 L 93.50 22.50 L 93.80 17.28 C94.08,12.39 93.94,12.02 91.51,11.41 C87.21,10.33 51.94,11.74 46.50,13.21 C33.00,16.85 21.58,26.02 15.72,37.92 L 12.50 44.46 L 12.50 65.98 L 12.51 87.50 L 15.49 93.50 C20.69,103.98 31.13,112.82 44.00,117.64 C50.29,119.99 51.46,119.27 51.80,112.80 Z" fill="rgb(252,196,27)"/>
</g>
</svg>